# xmcd CD database file
#
# Track frame offsets:
#	150
#	30231
#	58878
#	78970
#	101029
#	118234
#	150858
#	173915
#
# Disc length: 2749 seconds
#
# Revision: 0
# Processed by: cddbd v1.5PL3 Copyright (c) Steve Scherf et al.
# Submitted via: CDex 1.51
#
DISCID=590abb08
DTITLE=erminero>collazzoni>canzano - Afro Blue
DYEAR=2004
DGENRE=Jazz
TTITLE0=Only Child
TTITLE1=Afro Blue
TTITLE2=Freddie the Freeloader
TTITLE3=Prince of Darkness
TTITLE4=Peace
TTITLE5=Footprints
TTITLE6=Nardis
TTITLE7=Witch Hunt
EXTD=YEAR: 2004
EXTT0=
EXTT1=
EXTT2=
EXTT3=
EXTT4=
EXTT5=
EXTT6=
EXTT7=
PLAYORDER=
